<svg xmlns="http://www.w3.org/2000/svg" viewBox="0 0 128 128" role="img" aria-label="MiMo Agent">
  <title>MiMo Agent</title>
  <defs>
    <linearGradient id="mimoAgentOrange" x1="22" y1="18" x2="108" y2="112" gradientUnits="userSpaceOnUse">
      <stop offset="0" stop-color="#FF9A3D"/>
      <stop offset="0.48" stop-color="#FF6900"/>
      <stop offset="1" stop-color="#D9480F"/>
    </linearGradient>
  </defs>

  <path d="M23 18h82c8.3 0 15 6.7 15 15v58c0 8.3-6.7 15-15 15H72l-26 18v-18H23c-8.3 0-15-6.7-15-15V33c0-8.3 6.7-15 15-15Z"
        fill="#111827"/>
  <path d="M23 18h82c8.3 0 15 6.7 15 15v58c0 8.3-6.7 15-15 15H72l-26 18v-18H23c-8.3 0-15-6.7-15-15V33c0-8.3 6.7-15 15-15Z"
        fill="none" stroke="#F8FAFC" stroke-opacity=".92" stroke-width="7" stroke-linejoin="round"/>
  <path d="M23 18h82c8.3 0 15 6.7 15 15v58c0 8.3-6.7 15-15 15H72l-26 18v-18H23c-8.3 0-15-6.7-15-15V33c0-8.3 6.7-15 15-15Z"
        fill="none" stroke="url(#mimoAgentOrange)" stroke-width="4" stroke-linejoin="round"/>

  <path d="M31 88V40l33 27 33-27v48"
        fill="none" stroke="#F8FAFC" stroke-width="13" stroke-linecap="round" stroke-linejoin="round"/>
  <path d="M31 88V40l33 27 33-27v48"
        fill="none" stroke="url(#mimoAgentOrange)" stroke-width="7" stroke-linecap="round" stroke-linejoin="round"/>

  <circle cx="31" cy="40" r="7" fill="#F8FAFC"/>
  <circle cx="64" cy="67" r="7" fill="#F8FAFC"/>
  <circle cx="97" cy="40" r="7" fill="#F8FAFC"/>
  <circle cx="31" cy="40" r="3.5" fill="#FF6900"/>
  <circle cx="64" cy="67" r="3.5" fill="#FF6900"/>
  <circle cx="97" cy="40" r="3.5" fill="#FF6900"/>
</svg>
